<mxfile host="app.diagrams.net" modified="2024-04-30T14:28:57.978Z" agent="Mozilla/5.0 (Windows NT 10.0; Win64; x64) AppleWebKit/537.36 (KHTML, like Gecko) Chrome/123.0.0.0 Safari/537.36 OPR/109.0.0.0" etag="VwdWc9zx9mlCmwYYXVor" version="24.3.1" type="github">
  <diagram name="PÃ¡gina-1" id="-zC0osX30IaU17_Wlsbk">
    <mxGraphModel dx="826" dy="429" grid="1" gridSize="10" guides="1" tooltips="1" connect="1" arrows="1" fold="1" page="1" pageScale="1" pageWidth="827" pageHeight="1169" math="0" shadow="0">
      <root>
        <mxCell id="0" />
        <mxCell id="1" parent="0" />
        <mxCell id="MwWT21OiPAVnFrDfWvJZ-3" value="" style="edgeStyle=orthogonalEdgeStyle;rounded=0;orthogonalLoop=1;jettySize=auto;html=1;" edge="1" parent="1" source="MwWT21OiPAVnFrDfWvJZ-1">
          <mxGeometry relative="1" as="geometry">
            <mxPoint x="140" y="180" as="targetPoint" />
          </mxGeometry>
        </mxCell>
        <mxCell id="MwWT21OiPAVnFrDfWvJZ-1" value="Inicio" style="ellipse;whiteSpace=wrap;html=1;" vertex="1" parent="1">
          <mxGeometry x="80" y="40" width="120" height="80" as="geometry" />
        </mxCell>
        <mxCell id="MwWT21OiPAVnFrDfWvJZ-5" value="" style="edgeStyle=orthogonalEdgeStyle;rounded=0;orthogonalLoop=1;jettySize=auto;html=1;" edge="1" parent="1" target="MwWT21OiPAVnFrDfWvJZ-4">
          <mxGeometry relative="1" as="geometry">
            <mxPoint x="140" y="240" as="sourcePoint" />
          </mxGeometry>
        </mxCell>
        <mxCell id="MwWT21OiPAVnFrDfWvJZ-7" value="" style="edgeStyle=orthogonalEdgeStyle;rounded=0;orthogonalLoop=1;jettySize=auto;html=1;" edge="1" parent="1" source="MwWT21OiPAVnFrDfWvJZ-4" target="MwWT21OiPAVnFrDfWvJZ-6">
          <mxGeometry relative="1" as="geometry" />
        </mxCell>
        <mxCell id="MwWT21OiPAVnFrDfWvJZ-10" value="" style="edgeStyle=orthogonalEdgeStyle;rounded=0;orthogonalLoop=1;jettySize=auto;html=1;" edge="1" parent="1" source="MwWT21OiPAVnFrDfWvJZ-4" target="MwWT21OiPAVnFrDfWvJZ-9">
          <mxGeometry relative="1" as="geometry" />
        </mxCell>
        <mxCell id="MwWT21OiPAVnFrDfWvJZ-24" value="Else if" style="edgeLabel;html=1;align=center;verticalAlign=middle;resizable=0;points=[];" vertex="1" connectable="0" parent="MwWT21OiPAVnFrDfWvJZ-10">
          <mxGeometry x="-0.125" y="6" relative="1" as="geometry">
            <mxPoint x="14" as="offset" />
          </mxGeometry>
        </mxCell>
        <mxCell id="MwWT21OiPAVnFrDfWvJZ-4" value="65 &amp;lt;= character &amp;amp;&amp;amp; character &amp;lt; 96" style="rhombus;whiteSpace=wrap;html=1;fillColor=#e1d5e7;strokeColor=#9673a6;" vertex="1" parent="1">
          <mxGeometry x="20" y="310" width="240" height="80" as="geometry" />
        </mxCell>
        <mxCell id="MwWT21OiPAVnFrDfWvJZ-8" style="rounded=0;orthogonalLoop=1;jettySize=auto;html=1;exitX=1;exitY=0;exitDx=0;exitDy=0;" edge="1" parent="1" source="MwWT21OiPAVnFrDfWvJZ-6">
          <mxGeometry relative="1" as="geometry">
            <mxPoint x="630" y="300" as="targetPoint" />
          </mxGeometry>
        </mxCell>
        <mxCell id="MwWT21OiPAVnFrDfWvJZ-6" value="&lt;font color=&quot;#190033&quot;&gt;&quot;upper-case alphabet&quot;&lt;/font&gt;" style="shape=parallelogram;perimeter=parallelogramPerimeter;whiteSpace=wrap;html=1;fixedSize=1;fillColor=#d5e8d4;strokeColor=#82b366;" vertex="1" parent="1">
          <mxGeometry x="400" y="320" width="200" height="60" as="geometry" />
        </mxCell>
        <mxCell id="MwWT21OiPAVnFrDfWvJZ-13" value="" style="edgeStyle=orthogonalEdgeStyle;rounded=0;orthogonalLoop=1;jettySize=auto;html=1;" edge="1" parent="1" source="MwWT21OiPAVnFrDfWvJZ-9" target="MwWT21OiPAVnFrDfWvJZ-12">
          <mxGeometry relative="1" as="geometry" />
        </mxCell>
        <mxCell id="MwWT21OiPAVnFrDfWvJZ-15" value="" style="edgeStyle=orthogonalEdgeStyle;rounded=0;orthogonalLoop=1;jettySize=auto;html=1;" edge="1" parent="1" source="MwWT21OiPAVnFrDfWvJZ-9" target="MwWT21OiPAVnFrDfWvJZ-14">
          <mxGeometry relative="1" as="geometry" />
        </mxCell>
        <mxCell id="MwWT21OiPAVnFrDfWvJZ-9" value="97 &amp;lt;= character &amp;amp;&amp;amp; character &amp;lt;= 122" style="rhombus;whiteSpace=wrap;html=1;fillColor=#e1d5e7;strokeColor=#9673a6;" vertex="1" parent="1">
          <mxGeometry x="15" y="470" width="250" height="80" as="geometry" />
        </mxCell>
        <mxCell id="MwWT21OiPAVnFrDfWvJZ-11" value="char character" style="shape=parallelogram;perimeter=parallelogramPerimeter;whiteSpace=wrap;html=1;fixedSize=1;fillColor=#d5e8d4;strokeColor=#82b366;" vertex="1" parent="1">
          <mxGeometry x="80" y="180" width="120" height="60" as="geometry" />
        </mxCell>
        <mxCell id="MwWT21OiPAVnFrDfWvJZ-18" value="" style="edgeStyle=orthogonalEdgeStyle;rounded=0;orthogonalLoop=1;jettySize=auto;html=1;" edge="1" parent="1" source="MwWT21OiPAVnFrDfWvJZ-12" target="MwWT21OiPAVnFrDfWvJZ-17">
          <mxGeometry relative="1" as="geometry" />
        </mxCell>
        <mxCell id="MwWT21OiPAVnFrDfWvJZ-22" style="edgeStyle=orthogonalEdgeStyle;rounded=0;orthogonalLoop=1;jettySize=auto;html=1;entryX=0.5;entryY=0;entryDx=0;entryDy=0;" edge="1" parent="1" source="MwWT21OiPAVnFrDfWvJZ-12" target="MwWT21OiPAVnFrDfWvJZ-20">
          <mxGeometry relative="1" as="geometry" />
        </mxCell>
        <mxCell id="MwWT21OiPAVnFrDfWvJZ-12" value="32 &amp;lt;= character &amp;amp;&amp;amp; character &amp;lt;= 64" style="rhombus;whiteSpace=wrap;html=1;fillColor=#e1d5e7;strokeColor=#9673a6;" vertex="1" parent="1">
          <mxGeometry x="15" y="630" width="250" height="80" as="geometry" />
        </mxCell>
        <mxCell id="MwWT21OiPAVnFrDfWvJZ-16" style="rounded=0;orthogonalLoop=1;jettySize=auto;html=1;exitX=1;exitY=0;exitDx=0;exitDy=0;" edge="1" parent="1" source="MwWT21OiPAVnFrDfWvJZ-14">
          <mxGeometry relative="1" as="geometry">
            <mxPoint x="620" y="460" as="targetPoint" />
          </mxGeometry>
        </mxCell>
        <mxCell id="MwWT21OiPAVnFrDfWvJZ-14" value="&quot;lower-case alphabet&quot;&amp;nbsp;" style="shape=parallelogram;perimeter=parallelogramPerimeter;whiteSpace=wrap;html=1;fixedSize=1;fillColor=#d5e8d4;strokeColor=#82b366;" vertex="1" parent="1">
          <mxGeometry x="410" y="480" width="180" height="60" as="geometry" />
        </mxCell>
        <mxCell id="MwWT21OiPAVnFrDfWvJZ-19" style="rounded=0;orthogonalLoop=1;jettySize=auto;html=1;exitX=1;exitY=0;exitDx=0;exitDy=0;" edge="1" parent="1" source="MwWT21OiPAVnFrDfWvJZ-17">
          <mxGeometry relative="1" as="geometry">
            <mxPoint x="610" y="620" as="targetPoint" />
          </mxGeometry>
        </mxCell>
        <mxCell id="MwWT21OiPAVnFrDfWvJZ-17" value="&lt;div style=&quot;line-height: 19px;&quot;&gt;&quot;not an alphabet&quot;&amp;nbsp;&lt;br&gt;&lt;/div&gt;" style="shape=parallelogram;perimeter=parallelogramPerimeter;whiteSpace=wrap;html=1;fixedSize=1;fillColor=#d5e8d4;strokeColor=#82b366;" vertex="1" parent="1">
          <mxGeometry x="410" y="640" width="170" height="50" as="geometry" />
        </mxCell>
        <mxCell id="MwWT21OiPAVnFrDfWvJZ-20" value="Final" style="ellipse;whiteSpace=wrap;html=1;" vertex="1" parent="1">
          <mxGeometry x="80" y="790" width="120" height="80" as="geometry" />
        </mxCell>
        <mxCell id="MwWT21OiPAVnFrDfWvJZ-23" value="If" style="text;html=1;align=center;verticalAlign=middle;resizable=0;points=[];autosize=1;strokeColor=none;fillColor=none;" vertex="1" parent="1">
          <mxGeometry x="135" y="258" width="30" height="30" as="geometry" />
        </mxCell>
        <mxCell id="MwWT21OiPAVnFrDfWvJZ-25" value="Else if" style="text;html=1;align=center;verticalAlign=middle;resizable=0;points=[];autosize=1;strokeColor=none;fillColor=none;" vertex="1" parent="1">
          <mxGeometry x="135" y="578" width="60" height="30" as="geometry" />
        </mxCell>
      </root>
    </mxGraphModel>
  </diagram>
</mxfile>
